<svg width="22" height="22" viewBox="0 0 22 22" fill="none" xmlns="http://www.w3.org/2000/svg">
<path fill-rule="evenodd" clip-rule="evenodd" d="M20.6432 10.9672C20.6432 16.164 16.4304 20.3768 11.2336 20.3768C6.03676 20.3768 1.82393 16.164 1.82393 10.9672C1.82393 5.7704 6.03676 1.55757 11.2336 1.55757C16.4304 1.55757 20.6432 5.7704 20.6432 10.9672ZM21.9432 10.9672C21.9432 16.882 17.1483 21.6768 11.2336 21.6768C5.31879 21.6768 0.523926 16.882 0.523926 10.9672C0.523926 5.05243 5.31879 0.257568 11.2336 0.257568C17.1483 0.257568 21.9432 5.05243 21.9432 10.9672ZM6.83726 6.99933C6.28586 6.99933 5.83887 7.44632 5.83887 7.99772V8.96913C5.83887 9.52052 6.28586 9.96752 6.83726 9.96752C7.38865 9.96752 7.83565 9.52052 7.83565 8.96912V7.99772C7.83565 7.44632 7.38865 6.99933 6.83726 6.99933ZM14.3389 7.99772C14.3389 7.44632 14.7859 6.99933 15.3373 6.99933C15.8887 6.99933 16.3356 7.44632 16.3356 7.99772V8.96912C16.3356 9.52052 15.8887 9.96752 15.3373 9.96752C14.7859 9.96752 14.3389 9.52052 14.3389 8.96913V7.99772ZM11.0466 9.12467C10.5012 9.12467 10.1162 9.44023 9.8969 9.80846C9.68717 10.1606 9.604 10.5883 9.60612 10.9785C9.60824 11.369 9.69615 11.7942 9.90536 12.1434C10.1222 12.5054 10.5033 12.8258 11.0466 12.8258C11.3779 12.8258 11.6466 12.5572 11.6466 12.2258C11.6466 11.8944 11.3779 11.6258 11.0466 11.6258L11.0446 11.6258C11.032 11.6263 10.9953 11.6277 10.9347 11.5266C10.8629 11.4068 10.8074 11.2067 10.8061 10.972C10.8048 10.7369 10.8583 10.5393 10.9279 10.4225C10.9863 10.3245 11.0229 10.3246 11.0448 10.3247L11.0466 10.3247C11.3779 10.3247 11.6466 10.056 11.6466 9.72467C11.6466 9.3933 11.3779 9.12467 11.0466 9.12467ZM15.3887 13.5787C15.5394 13.2836 15.4223 12.9222 15.1272 12.7715C14.8321 12.6208 14.4706 12.7379 14.3199 13.033C12.9673 15.6819 9.41993 15.7503 7.89312 13.0135C7.73167 12.7242 7.36621 12.6204 7.07682 12.7819C6.78744 12.9433 6.68372 13.3088 6.84517 13.5982C8.81357 17.1265 13.5758 17.129 15.3887 13.5787Z" fill="#90949B"/>
</svg>
