<svg width="24" height="24" viewBox="0 0 24 24" fill="none" xmlns="http://www.w3.org/2000/svg">
<path fill-rule="evenodd" clip-rule="evenodd" d="M8.0415 1.71721H15.9608C19.4402 1.71721 22.2608 4.53782 22.2608 8.01721V15.8645C22.2608 19.3439 19.4402 22.1645 15.9608 22.1645H8.04151C4.56211 22.1645 1.7415 19.3439 1.7415 15.8645V8.01722C1.7415 4.53782 4.56211 1.71721 8.0415 1.71721ZM0.541504 8.01722C0.541504 3.87508 3.89937 0.517212 8.0415 0.517212H15.9608C20.103 0.517212 23.4608 3.87508 23.4608 8.01721V15.8645C23.4608 20.0066 20.103 23.3645 15.9608 23.3645H8.04151C3.89937 23.3645 0.541504 20.0066 0.541504 15.8645V8.01722ZM12.1582 5.5553C12.4343 5.5553 12.6582 5.77916 12.6582 6.0553V11.2841H17.8868C18.1629 11.2841 18.3868 11.508 18.3868 11.7841V12.0976C18.3868 12.3737 18.1629 12.5976 17.8868 12.5976H12.6582V17.8263C12.6582 18.1025 12.4343 18.3263 12.1582 18.3263H11.8448C11.5686 18.3263 11.3448 18.1025 11.3448 17.8263V12.5976H6.11572C5.83958 12.5976 5.61572 12.3737 5.61572 12.0976V11.7841C5.61572 11.508 5.83958 11.2841 6.11572 11.2841H11.3448V6.0553C11.3448 5.77915 11.5686 5.5553 11.8448 5.5553H12.1582Z" fill="#90949B"/>
</svg>
