<svg width="19" height="18" viewBox="0 0 19 18" fill="none" xmlns="http://www.w3.org/2000/svg">
<path fill-rule="evenodd" clip-rule="evenodd" d="M11.8375 12.2797C10.6947 13.1676 9.25893 13.6963 7.69971 13.6963C3.97179 13.6963 0.949707 10.6742 0.949707 6.94629C0.949707 3.21837 3.97179 0.196289 7.69971 0.196289C11.4276 0.196289 14.4497 3.21837 14.4497 6.94629C14.4497 8.50387 13.9221 9.93823 13.036 11.0804L18.2404 16.2848L17.0415 17.4837L11.8375 12.2797ZM12.9308 6.94628C12.9308 9.83558 10.5886 12.1778 7.6993 12.1778C4.81001 12.1778 2.46777 9.83558 2.46777 6.94628C2.46777 4.05699 4.81001 1.71475 7.6993 1.71475C10.5886 1.71475 12.9308 4.05699 12.9308 6.94628Z" fill="#282A2B"/>
</svg>
